<?xml version="1.0" encoding="UTF-8"?>
<svg xmlns="http://www.w3.org/2000/svg" width="1024" height="1024" viewBox="0 0 1024 1024">
  <path d="M 352.0 374.0 L 350.0 376.0 L 350.0 547.0 L 352.0 549.0 L 356.0 550.0 L 374.0 551.0 L 375.0 552.0 L 401.0 556.0 L 436.0 566.0 L 451.0 572.0 L 473.0 583.0 L 492.0 595.0 L 510.0 609.0 L 514.0 607.0 L 514.0 451.0 L 510.0 441.0 L 502.0 432.0 L 487.0 420.0 L 465.0 406.0 L 440.0 394.0 L 425.0 388.0 L 395.0 379.0 L 391.0 379.0 L 381.0 376.0 L 369.0 375.0 L 368.0 374.0 L 361.0 374.0 L 360.0 373.0 L 359.0 374.0 L 358.0 373.0 Z
    M 686.0 374.0 L 679.0 373.0 L 678.0 374.0 L 653.0 377.0 L 626.0 384.0 L 601.0 393.0 L 564.0 412.0 L 543.0 427.0 L 530.0 440.0 L 526.0 448.0 L 526.0 454.0 L 525.0 455.0 L 525.0 606.0 L 527.0 608.0 L 531.0 608.0 L 545.0 596.0 L 561.0 585.0 L 596.0 568.0 L 630.0 557.0 L 662.0 551.0 L 682.0 550.0 L 687.0 548.0 L 688.0 544.0 L 688.0 384.0 Z
    M 507.0 318.0 L 496.0 323.0 L 487.0 331.0 L 481.0 341.0 L 478.0 354.0 L 478.0 360.0 L 482.0 375.0 L 490.0 386.0 L 502.0 394.0 L 511.0 397.0 L 528.0 397.0 L 535.0 395.0 L 545.0 389.0 L 552.0 382.0 L 558.0 372.0 L 560.0 365.0 L 560.0 350.0 L 558.0 343.0 L 551.0 331.0 L 543.0 324.0 L 536.0 320.0 L 526.0 317.0 Z
    M 348.0 671.0 L 345.0 674.0 L 345.0 749.0 L 348.0 751.0 L 379.0 751.0 L 380.0 750.0 L 387.0 750.0 L 400.0 744.0 L 411.0 733.0 L 414.0 727.0 L 417.0 715.0 L 417.0 707.0 L 415.0 697.0 L 409.0 686.0 L 400.0 678.0 L 385.0 672.0 Z
    M 699.0 671.0 L 692.0 683.0 L 675.0 723.0 L 669.0 734.0 L 663.0 750.0 L 664.0 751.0 L 678.0 751.0 L 684.0 736.0 L 688.0 730.0 L 722.0 730.0 L 732.0 751.0 L 745.0 751.0 L 746.0 747.0 L 713.0 673.0 L 711.0 671.0 Z
    M 249.0 673.0 L 249.0 744.0 L 248.0 745.0 L 249.0 749.0 L 251.0 751.0 L 308.0 751.0 L 310.0 750.0 L 311.0 740.0 L 309.0 737.0 L 280.0 737.0 L 279.0 736.0 L 278.0 737.0 L 264.0 737.0 L 263.0 736.0 L 263.0 718.0 L 264.0 717.0 L 299.0 717.0 L 301.0 715.0 L 301.0 707.0 L 299.0 704.0 L 296.0 703.0 L 264.0 703.0 L 263.0 702.0 L 263.0 687.0 L 264.0 686.0 L 306.0 686.0 L 311.0 683.0 L 310.0 673.0 L 307.0 671.0 L 252.0 671.0 Z
    M 452.0 671.0 L 449.0 674.0 L 449.0 721.0 L 451.0 730.0 L 456.0 739.0 L 465.0 747.0 L 473.0 751.0 L 483.0 753.0 L 499.0 751.0 L 506.0 748.0 L 513.0 743.0 L 518.0 737.0 L 523.0 723.0 L 523.0 673.0 L 520.0 671.0 L 510.0 671.0 L 508.0 673.0 L 508.0 719.0 L 505.0 729.0 L 499.0 735.0 L 493.0 738.0 L 479.0 738.0 L 473.0 735.0 L 469.0 731.0 L 465.0 723.0 L 465.0 676.0 L 464.0 673.0 L 462.0 671.0 Z
    M 582.0 673.0 L 572.0 679.0 L 565.0 686.0 L 558.0 701.0 L 557.0 716.0 L 560.0 727.0 L 563.0 733.0 L 573.0 744.0 L 587.0 751.0 L 609.0 752.0 L 614.0 751.0 L 625.0 746.0 L 632.0 740.0 L 632.0 738.0 L 627.0 730.0 L 624.0 730.0 L 619.0 734.0 L 608.0 738.0 L 594.0 738.0 L 583.0 733.0 L 576.0 726.0 L 573.0 720.0 L 572.0 705.0 L 576.0 696.0 L 584.0 688.0 L 595.0 684.0 L 606.0 684.0 L 613.0 686.0 L 625.0 693.0 L 633.0 683.0 L 623.0 675.0 L 608.0 670.0 L 593.0 670.0 Z
    M 361.0 685.0 L 384.0 686.0 L 392.0 690.0 L 398.0 696.0 L 402.0 706.0 L 402.0 715.0 L 400.0 722.0 L 397.0 727.0 L 389.0 734.0 L 380.0 737.0 L 361.0 737.0 L 360.0 736.0 L 360.0 686.0 Z
    M 360.0 264.0 L 353.0 271.0 L 354.0 276.0 L 402.0 326.0 L 407.0 326.0 L 414.0 320.0 L 415.0 315.0 L 365.0 263.0 Z
    M 678.0 265.0 L 674.0 263.0 L 671.0 264.0 L 630.0 309.0 L 625.0 316.0 L 625.0 319.0 L 628.0 323.0 L 633.0 326.0 L 639.0 325.0 L 680.0 279.0 L 684.0 272.0 Z
    M 784.0 671.0 L 782.0 673.0 L 782.0 750.0 L 783.0 751.0 L 795.0 751.0 L 797.0 748.0 L 797.0 675.0 L 794.0 671.0 Z
    M 464.0 220.0 L 457.0 223.0 L 455.0 225.0 L 455.0 228.0 L 476.0 288.0 L 480.0 291.0 L 490.0 288.0 L 492.0 286.0 L 492.0 283.0 L 471.0 222.0 L 469.0 220.0 Z
    M 582.0 221.0 L 575.0 220.0 L 572.0 223.0 L 564.0 248.0 L 564.0 251.0 L 557.0 270.0 L 557.0 273.0 L 554.0 280.0 L 554.0 286.0 L 561.0 290.0 L 568.0 290.0 L 569.0 289.0 L 578.0 262.0 L 581.0 249.0 L 588.0 230.0 L 588.0 225.0 Z
    M 705.0 689.0 L 717.0 716.0 L 716.0 718.0 L 715.0 717.0 L 695.0 717.0 L 694.0 718.0 L 693.0 717.0 L 694.0 712.0 L 698.0 705.0 L 703.0 691.0 Z" fill="#000000" fill-rule="evenodd"/>
</svg>
